<?xml version="1.0" encoding="UTF-8" standalone="no"?>
<!DOCTYPE svg PUBLIC "-//W3C//DTD SVG 1.1//EN" "http://www.w3.org/Graphics/SVG/1.1/DTD/svg11.dtd">
<!-- 由 Microsoft Visio, SVG Export 生成 answer.svg Page-1 -->
<svg xmlns="http://www.w3.org/2000/svg" xmlns:xlink="http://www.w3.org/1999/xlink" xmlns:ev="http://www.w3.org/2001/xml-events"
		xmlns:v="http://schemas.microsoft.com/visio/2003/SVGExtensions/" width="0.433992in" height="0.434003in"
		viewBox="0 0 31.2474 31.2482" xml:space="preserve" color-interpolation-filters="sRGB" class="st2">
	<v:documentProperties v:langID="2052" v:metric="true" v:viewMarkup="false">
		<v:userDefs>
			<v:ud v:nameU="msvSubprocessMaster" v:prompt="" v:val="VT4(Rectangle)"/>
			<v:ud v:nameU="msvNoAutoConnect" v:val="VT0(1):26"/>
		</v:userDefs>
	</v:documentProperties>

	<style type="text/css">
	<![CDATA[
		.st1 {fill:#00bf8f;stroke:none;stroke-width:0.146484}
		.st2 {fill:none;fill-rule:evenodd;font-size:12px;overflow:visible;stroke-linecap:square;stroke-miterlimit:3}
	]]>
	</style>

	<g v:mID="0" v:index="1" v:groupContext="foregroundPage">
		<v:userDefs>
			<v:ud v:nameU="msvThemeOrder" v:val="VT0(0):26"/>
		</v:userDefs>
		<title>页-1</title>
		<v:pageProperties v:drawingScale="0.0393701" v:pageScale="0.0393701" v:drawingUnits="24" v:shadowOffsetX="8.50394"
				v:shadowOffsetY="-8.50394"/>
		<g id="group102-1" transform="translate(1.32801,-0.146541)" v:mID="102" v:groupContext="group">
			<title>工作表.102</title>
			<g id="shape103-2" v:mID="103" v:groupContext="shape">
				<title>工作表.103</title>
				<path d="M14.34 31.25 A15.5223 15.5223 0 0 1 3.36 4.75 A15.5223 15.5223 0 0 1 25.32 26.7 A15.4201 15.4201 0 0 1 14.34
							 31.25 ZM12.72 19.11 a0.694622 0.694622 -180 0 0 -0.507061 0.213431 a0.736015 0.736015 -180 0 0 -0.213431
							 0.52517 a0.692035 0.692035 -180 0 0 0.213431 0.496713 L15.67 23.8 a0.225073 0.225073 -180 0 0 0.0517409
							 0.0633826 a0.719199 0.719199 -180 0 0 0.517409 0.206964 a0.707557 0.707557 -180 0 0 0.504474 -0.206964
							 L23.82 16.78 a0.685567 0.685567 -180 0 0 0.219899 -0.490245 a0.702383 0.702383 -180 0 0 -0.206964 -0.517409
							 a0.725666 0.725666 -180 0 0 -0.517409 -0.219899 a0.767059 0.767059 -180 0 0 -0.517409 0.206964 L16.24
							 22.32 L13.24 19.32 a0.724373 0.724373 -180 0 0 -0.514822 -0.214725 L12.72 19.11 ZM10.63 16.48 L15.75
							 16.48 L17.11 19.63 a0.728253 0.728253 -180 0 0 0.671338 0.439798 a0.558802 0.558802 -180 0 0 0.284575
							 -0.0646761 a0.728253 0.728253 -180 0 0 0.388057 -0.403579 a0.710144 0.710144 -180 0 0 -0.0142288 -0.553628
							 L13.85 8.4 a0.70497 0.70497 -180 0 0 -0.632533 -0.439798 L13.15 7.96 a0.734721 0.734721 -180 0 0 -0.63512
							 0.439798 L7.94 19.05 a0.690741 0.690741 -180 0 0 -0.0129352 0.556215 a0.729547 0.729547 -180 0 0 0.680393
							 0.460494 a0.794223 0.794223 -180 0 0 0.258705 -0.0465668 a0.738602 0.738602 -180 0 0 0.400992 -0.388057
							 L10.62 16.48 L10.63 16.48 ZM15.13 15.03 L11.25 15.03 L13.19 10.53 L15.13 15.03 L15.13 15.03 Z"
						class="st1"/>
			</g>
		</g>
	</g>
</svg>
