<?xml version="1.0" encoding="UTF-8" standalone="no"?>
<!DOCTYPE svg PUBLIC "-//W3C//DTD SVG 1.1//EN" "http://www.w3.org/Graphics/SVG/1.1/DTD/svg11.dtd">
<!-- 由 Microsoft Visio, SVG Export 生成 executing_engine.svg Page-1 -->
<svg xmlns="http://www.w3.org/2000/svg" xmlns:xlink="http://www.w3.org/1999/xlink" xmlns:ev="http://www.w3.org/2001/xml-events"
		xmlns:v="http://schemas.microsoft.com/visio/2003/SVGExtensions/" width="1.67973in" height="0.503472in"
		viewBox="0 0 120.941 36.25" xml:space="preserve" color-interpolation-filters="sRGB" class="st16">
	<v:documentProperties v:langID="2052" v:metric="true" v:viewMarkup="false">
		<v:userDefs>
			<v:ud v:nameU="msvSubprocessMaster" v:prompt="" v:val="VT4(Rectangle)"/>
			<v:ud v:nameU="msvNoAutoConnect" v:val="VT0(1):26"/>
		</v:userDefs>
	</v:documentProperties>

	<style type="text/css">
	<![CDATA[
		.st1 {fill:#ffffff;stroke:none;stroke-width:0.146484}
		.st2 {fill:#5d6d7e;stroke:none;stroke-width:0.146484}
		.st3 {fill:#cdd3da;stroke:none;stroke-width:0.146484}
		.st4 {fill:#acb4c0;stroke:none;stroke-width:0.146484}
		.st5 {fill:#3b97d3;stroke:none;stroke-width:0.146484}
		.st6 {fill:#c49f74;stroke:none;stroke-width:0.146484}
		.st7 {fill:#325f72;stroke:none;stroke-width:0.146484}
		.st8 {fill:#dd8f3b;stroke:none;stroke-width:0.146484}
		.st9 {fill:none;stroke:#3f3f3f;stroke-dasharray:0.5,1;stroke-linecap:round;stroke-linejoin:round;stroke-width:0.5}
		.st10 {visibility:visible}
		.st11 {fill:#000000;fill-opacity:0.4;filter:url(#filter_2.6666667461395);stroke:#000000;stroke-opacity:0.4}
		.st12 {fill:#bfbfbf;stroke:#c7c8c8;stroke-width:0.5}
		.st13 {fill:#ffffff;stroke:#c7c8c8;stroke-width:0.5}
		.st14 {fill:#998be4;stroke:none;stroke-width:0.146484}
		.st15 {fill:#5038d1;stroke:none;stroke-width:0.146484}
		.st16 {fill:none;fill-rule:evenodd;font-size:12px;overflow:visible;stroke-linecap:square;stroke-miterlimit:3}
	]]>
	</style>

	<defs id="Filters">
		<filter id="filter_2.6666667461395">
			<feGaussianBlur stdDeviation="2.6666667461395"/>
		</filter>
	</defs>
	<g v:mID="0" v:index="1" v:groupContext="foregroundPage">
		<v:userDefs>
			<v:ud v:nameU="msvThemeOrder" v:val="VT0(0):26"/>
		</v:userDefs>
		<title>页-1</title>
		<v:pageProperties v:drawingScale="0.0393701" v:pageScale="0.0393701" v:drawingUnits="24" v:shadowOffsetX="8.50394"
				v:shadowOffsetY="-8.50394"/>
		<g id="group64-1" transform="translate(34.8843,-2.57525)" v:mID="64" v:groupContext="group">
			<title>工作表.64</title>
			<g id="shape65-2" v:mID="65" v:groupContext="shape" transform="translate(0,-1.14063)">
				<title>工作表.65</title>
				<path d="M1.16 8.03 L26.74 8.03 C27.52 8.03 27.91 8.39 27.91 9.12 L27.91 35.16 C27.91 35.89 27.52 36.25 26.74 36.25
							 L1.16 36.25 C0.39 36.25 0 35.89 0 35.16 L0 9.12 C0 8.39 0.39 8.03 1.16 8.03 Z" class="st1"/>
			</g>
			<g id="shape66-4" v:mID="66" v:groupContext="shape" transform="translate(0,-1.14063)">
				<title>工作表.66</title>
				<path d="M27.91 32.99 L27.91 35.16 A1.1628 1.08528 0 0 1 26.74 36.25 L26.74 32.99 L27.91 32.99 ZM16.28 35.16 L16.28
							 36.25 L1.16 36.25 A1.1628 1.08528 0 0 1 0 35.16 L0 9.12 A1.1628 1.08528 0 0 1 1.16 8.03 L26.74 8.03
							 A1.1628 1.08528 0 0 1 27.91 9.12 L27.91 23.23 L26.74 23.23 L26.74 9.12 L1.16 9.12 L1.16 35.16 L16.28
							 35.16 Z" class="st2"/>
			</g>
			<g id="shape67-6" v:mID="67" v:groupContext="shape" transform="translate(3.48839,-19.5903)">
				<title>工作表.67</title>
				<path d="M0 30.82 L20.93 30.82 L20.93 31.91 L0 31.91 L0 30.82 ZM0 35.16 L20.93 35.16 L20.93 36.25 L0 36.25 L0 35.16
							 Z" class="st3"/>
			</g>
			<g id="shape68-8" v:mID="68" v:groupContext="shape" transform="translate(3.48839,-15.2492)">
				<title>工作表.68</title>
				<path d="M0 26.48 L12.79 26.48 L12.79 27.57 L0 27.57 L0 26.48 ZM0 30.82 L12.79 30.82 L12.79 31.91 L0 31.91 L0 30.82
							 ZM0 35.16 L8.14 35.16 L8.14 36.25 L0 36.25 L0 35.16 Z" class="st4"/>
			</g>
			<g id="shape69-10" v:mID="69" v:groupContext="shape" transform="translate(14.0361,-4.93693)">
				<title>工作表.69</title>
				<path d="M11.88 30.02 C11.88 30.02 10.85 32.41 9.22 32.49 L5.73 32.49 C5.73 32.49 3.47 31.82 3.24 34.06 L3.24 36.08
							 L2.05 36.09 C2.05 36.09 0 36.25 0 32.29 C0 30.31 2.05 30.28 2.05 30.28 L8.06 30.28 L8.06 29.19 L3.41
							 29.19 L3.41 25.94 C3.41 25.94 4.34 25.66 4.98 25.37 C5.71 25.04 7 24.87 8.06 24.85 C10.49 24.81 11.74
							 25.53 11.87 27 L11.88 30.02 ZM4.57 27.02 L4.57 28.11 L5.73 28.11 L5.73 27.02 L4.57 27.02 Z"
						class="st5"/>
			</g>
			<g id="shape70-12" v:mID="70" v:groupContext="shape" transform="translate(18.2513,0)">
				<title>工作表.70</title>
				<path d="M3.66 30.77 L3.84 31.85 L7.66 31.85 L7.66 34.17 C7.66 34.17 7.63 36.25 3.66 36.19 C0 36.14 0.1 34.17 0.1
							 34.17 L0.1 30.13 C0.1 28.39 2.68 28.6 2.68 28.6 L6.04 28.6 C7.93 28.52 8.74 26.09 8.74 26.09 L8.74 24.07
							 L10.05 24.11 C10.05 24.11 11.98 24.22 11.98 28.04 C11.98 31.77 9.82 31.14 9.82 31.14 L3.66 30.77 ZM5
							 32.94 L5 34.02 L6.17 34.02 L6.17 32.94 L5 32.94 Z" class="st6"/>
			</g>
		</g>
		<g id="group71-14" transform="translate(5.60292,-2.57525)" v:mID="71" v:groupContext="group">
			<title>工作表.71</title>
			<g id="group72-15" v:mID="72" v:groupContext="group">
				<title>工作表.72</title>
				<g id="shape73-16" v:mID="73" v:groupContext="shape" transform="translate(0,-1.14063)">
					<title>工作表.73</title>
					<path d="M1.16 8.03 L26.74 8.03 C27.52 8.03 27.91 8.39 27.91 9.12 L27.91 35.16 C27.91 35.89 27.52 36.25 26.74
								 36.25 L1.16 36.25 C0.39 36.25 0 35.89 0 35.16 L0 9.12 C0 8.39 0.39 8.03 1.16 8.03 Z" class="st1"/>
				</g>
				<g id="shape74-18" v:mID="74" v:groupContext="shape" transform="translate(0,-1.14063)">
					<title>工作表.74</title>
					<path d="M27.91 32.99 L27.91 35.16 A1.1628 1.08528 0 0 1 26.74 36.25 L26.74 32.99 L27.91 32.99 ZM16.28 35.16
								 L16.28 36.25 L1.16 36.25 A1.1628 1.08528 0 0 1 0 35.16 L0 9.12 A1.1628 1.08528 0 0 1 1.16 8.03 L26.74
								 8.03 A1.1628 1.08528 0 0 1 27.91 9.12 L27.91 23.23 L26.74 23.23 L26.74 9.12 L1.16 9.12 L1.16 35.16
								 L16.28 35.16 Z" class="st2"/>
				</g>
				<g id="shape75-20" v:mID="75" v:groupContext="shape" transform="translate(3.48839,-19.5903)">
					<title>工作表.75</title>
					<path d="M0 30.82 L20.93 30.82 L20.93 31.91 L0 31.91 L0 30.82 ZM0 35.16 L20.93 35.16 L20.93 36.25 L0 36.25 L0
								 35.16 Z" class="st3"/>
				</g>
				<g id="shape76-22" v:mID="76" v:groupContext="shape" transform="translate(3.48839,-15.2492)">
					<title>工作表.76</title>
					<path d="M0 26.48 L12.79 26.48 L12.79 27.57 L0 27.57 L0 26.48 ZM0 30.82 L12.79 30.82 L12.79 31.91 L0 31.91 L0
								 30.82 ZM0 35.16 L8.14 35.16 L8.14 36.25 L0 36.25 L0 35.16 Z" class="st4"/>
				</g>
			</g>
			<g id="group77-24" transform="translate(11.6793,-0.847005)" v:mID="77" v:groupContext="group">
				<title>工作表.77</title>
				<g id="shape78-25" v:mID="78" v:groupContext="shape">
					<title>工作表.78</title>
					<path d="M8.62 36.25 A8.62129 8.04654 0 1 1 8.62 20.16 A8.62129 8.04654 0 0 1 8.62 36.25 ZM8.63 35.73 A8.05277
								 7.51592 -180 0 0 8.63 20.69 A8.05277 7.51592 -180 1 0 8.63 35.73 Z" class="st7"/>
				</g>
				<g id="shape79-27" v:mID="79" v:groupContext="shape" transform="translate(6.41808,-1.17748)">
					<title>工作表.79</title>
					<path d="M9.67 29.34 C9.67 33.01 6.62 36.02 2.75 36.25 A4.34129 4.05187 -180 0 0 4.93 32.74 C4.93 30.97 3.69
								 29.7 2.02 29.02 C0.85 28.47 0 27.35 0 26.05 C0 24.21 1.45 22.64 3.58 22.61 C4.06 22.6 4.51 22.69
								 4.98 22.84 C7.74 23.86 9.68 26.4 9.68 29.34 L9.67 29.34 ZM8.56 29.16 C8.13 29.15 7.8 29.19 7.52
								 29.3 C7.44 29.33 7.32 29.33 7.31 29.42 C7.35 29.46 7.35 29.53 7.39 29.58 C7.46 29.68 7.57 29.81
								 7.67 29.88 C7.78 29.96 7.89 30.03 8.01 30.1 C8.22 30.22 8.45 30.29 8.66 30.41 C8.77 30.47 8.89 30.56
								 9.01 30.64 C9.07 30.67 9.11 30.74 9.18 30.76 L9.18 30.75 C9.14 30.7 9.13 30.64 9.09 30.59 L8.93
								 30.45 A2.51073 2.34334 -180 0 0 8.38 29.96 C8.21 29.85 7.83 29.7 7.76 29.52 L7.75 29.51 C7.87 29.5
								 8.01 29.46 8.12 29.43 C8.3 29.39 8.47 29.4 8.66 29.36 C8.74 29.34 8.83 29.31 8.91 29.29 L8.91 29.24
								 C8.82 29.15 8.75 29.04 8.65 28.95 A7.1116 6.63749 -180 0 0 7.76 28.35 C7.6 28.25 7.39 28.19 7.21
								 28.11 C7.15 28.08 7.04 28.06 7 28.01 C6.91 27.91 6.85 27.77 6.78 27.64 A13.3122 12.4248 0 0 1 6.34
								 26.79 C6.25 26.6 6.19 26.41 6.07 26.23 C5.52 25.4 4.92 24.89 4.01 24.4 C3.81 24.3 3.57 24.25 3.32
								 24.2 C3.19 24.2 3.05 24.19 2.92 24.18 C2.84 24.15 2.75 24.05 2.68 24.01 C2.37 23.83 1.59 23.45 1.36
								 23.96 C1.22 24.27 1.58 24.59 1.7 24.75 C1.79 24.86 1.91 24.99 1.97 25.11 C2.01 25.2 2.02 25.29 2.06
								 25.37 C2.14 25.59 2.22 25.83 2.33 26.03 C2.39 26.13 2.46 26.24 2.53 26.33 C2.57 26.39 2.65 26.41
								 2.67 26.5 C2.59 26.6 2.58 26.74 2.54 26.87 C2.35 27.42 2.42 28.1 2.7 28.51 C2.78 28.63 2.98 28.9
								 3.26 28.8 C3.5 28.71 3.44 28.43 3.51 28.19 C3.53 28.13 3.52 28.09 3.55 28.05 L3.55 28.06 C3.63 28.2
								 3.7 28.33 3.77 28.46 C3.94 28.7 4.22 28.95 4.46 29.12 C4.59 29.21 4.69 29.36 4.85 29.41 L4.85 29.4
								 L4.84 29.4 C4.81 29.35 4.76 29.34 4.72 29.3 A2.55765 2.38714 0 0 1 4.44 29.01 A6.71789 6.27003 0
								 0 1 3.85 28.12 C3.76 27.97 3.69 27.8 3.62 27.65 C3.58 27.59 3.58 27.5 3.53 27.47 C3.45 27.58 3.33
								 27.67 3.27 27.8 C3.17 28.01 3.16 28.27 3.12 28.54 C3.1 28.55 3.11 28.54 3.1 28.55 C2.93 28.51 2.87
								 28.35 2.81 28.22 C2.65 27.87 2.62 27.31 2.76 26.91 C2.8 26.81 2.96 26.48 2.89 26.39 C2.86 26.29
								 2.76 26.24 2.7 26.17 A2.09688 1.95709 0 0 1 2.5 25.85 C2.38 25.58 2.31 25.28 2.17 25 C2.11 24.88
								 2 24.74 1.91 24.63 C1.8 24.49 1.69 24.4 1.61 24.24 C1.59 24.19 1.55 24.1 1.59 24.04 C1.6 24 1.62
								 23.99 1.67 23.98 C1.74 23.93 1.93 24 2 24.02 C2.2 24.1 2.37 24.17 2.53 24.27 C2.61 24.32 2.69 24.41
								 2.78 24.43 L2.89 24.43 C3.07 24.47 3.26 24.44 3.42 24.49 C3.7 24.57 3.96 24.69 4.19 24.83 C4.89
								 25.23 5.46 25.81 5.85 26.5 C5.92 26.61 5.94 26.71 6 26.83 C6.11 27.07 6.25 27.32 6.37 27.55 C6.48
								 27.78 6.58 28.02 6.74 28.21 C6.83 28.31 7.15 28.36 7.29 28.42 C7.4 28.46 7.56 28.5 7.66 28.55 C7.84
								 28.66 8.02 28.77 8.19 28.89 C8.28 28.94 8.54 29.07 8.56 29.16 ZM2.89 24.94 L2.89 24.95 L2.91 24.95
								 C2.95 25.03 3.03 25.09 3.09 25.16 C3.14 25.24 3.18 25.33 3.23 25.41 L3.24 25.4 C3.32 25.35 3.36
								 25.26 3.36 25.14 C3.32 25.11 3.32 25.07 3.29 25.03 C3.25 24.98 3.18 24.96 3.13 24.91 a0.919604 0.858297
								 -180 0 0 -0.237579 0.0268218 L2.89 24.94 Z" class="st8"/>
				</g>
				<g id="shape80-29" v:mID="80" v:groupContext="shape" transform="translate(1.1725,-1.30444)">
					<title>工作表.80</title>
					<path d="M0 29.51 C0 25.84 3.06 22.83 6.92 22.6 A4.34129 4.05187 -180 0 0 4.75 26.11 C4.75 27.88 5.99 29.15 7.66
								 29.83 C8.82 30.38 9.68 31.5 9.68 32.8 C9.68 34.65 8.22 36.21 6.09 36.24 C5.62 36.25 5.16 36.16 4.69
								 36.01 C1.93 34.99 0 32.45 0 29.51 ZM1.02 29.79 C1.45 29.8 1.78 29.76 2.06 29.66 C2.14 29.63 2.26
								 29.63 2.27 29.53 C2.23 29.49 2.23 29.43 2.19 29.38 A1.23284 1.15066 -180 0 0 1.91 29.08 C1.8 29
								 1.69 28.92 1.57 28.85 C1.36 28.74 1.13 28.67 0.92 28.55 C0.81 28.48 0.69 28.39 0.57 28.32 C0.51
								 28.28 0.48 28.22 0.4 28.19 L0.4 28.21 C0.44 28.25 0.45 28.32 0.49 28.36 L0.65 28.51 C0.8 28.7 0.99
								 28.86 1.2 29 C1.37 29.11 1.75 29.25 1.82 29.43 L1.83 29.44 C1.71 29.45 1.57 29.49 1.46 29.52 C1.28
								 29.57 1.11 29.56 0.92 29.6 C0.84 29.62 0.75 29.65 0.67 29.67 L0.67 29.71 C0.76 29.8 0.83 29.92 0.93
								 30 C1.21 30.22 1.51 30.43 1.82 30.6 C1.98 30.7 2.19 30.76 2.37 30.85 C2.44 30.88 2.54 30.89 2.58
								 30.94 C2.67 31.05 2.73 31.19 2.8 31.32 C2.95 31.59 3.1 31.89 3.24 32.17 C3.33 32.36 3.39 32.55 3.51
								 32.73 C4.06 33.56 4.66 34.06 5.58 34.55 C5.77 34.66 6.01 34.7 6.26 34.76 C6.39 34.76 6.53 34.77
								 6.66 34.77 C6.74 34.81 6.83 34.9 6.9 34.95 C7.21 35.12 7.99 35.5 8.22 35 C8.36 34.68 8 34.37 7.88
								 34.21 C7.79 34.1 7.67 33.97 7.61 33.84 C7.57 33.76 7.56 33.67 7.52 33.58 C7.44 33.37 7.36 33.13
								 7.25 32.93 A2.52029 2.35227 -180 0 0 7.05 32.62 C7.01 32.57 6.93 32.55 6.91 32.46 C6.99 32.36 7
								 32.21 7.04 32.09 C7.23 31.54 7.16 30.85 6.88 30.45 C6.8 30.33 6.6 30.06 6.32 30.16 C6.08 30.25 6.14
								 30.53 6.07 30.77 C6.05 30.83 6.06 30.87 6.03 30.91 L6.03 30.9 C5.95 30.76 5.88 30.63 5.81 30.49
								 C5.64 30.25 5.36 30 5.12 29.84 C4.99 29.75 4.89 29.6 4.73 29.54 L4.73 29.56 L4.74 29.56 C4.77 29.6
								 4.82 29.62 4.86 29.66 C4.96 29.74 5.06 29.85 5.14 29.95 C5.36 30.22 5.56 30.53 5.74 30.84 C5.82
								 30.99 5.9 31.16 5.96 31.31 C6 31.37 6 31.45 6.05 31.48 C6.13 31.38 6.25 31.28 6.31 31.15 C6.41 30.94
								 6.42 30.68 6.46 30.41 C6.48 30.41 6.47 30.41 6.48 30.4 C6.65 30.44 6.71 30.6 6.77 30.74 C6.93 31.09
								 6.96 31.64 6.82 32.05 C6.78 32.15 6.62 32.47 6.69 32.57 C6.72 32.66 6.82 32.72 6.88 32.79 C6.95
								 32.88 7.03 33 7.08 33.1 C7.2 33.38 7.27 33.68 7.41 33.95 C7.47 34.08 7.58 34.21 7.67 34.33 C7.78
								 34.46 7.89 34.55 7.97 34.71 C7.99 34.76 8.03 34.85 7.99 34.91 C7.98 34.95 7.96 34.97 7.91 34.98
								 C7.84 35.03 7.65 34.96 7.58 34.93 A2.74348 2.56058 0 0 1 7.05 34.69 C6.97 34.64 6.89 34.55 6.8 34.52
								 L6.69 34.52 C6.51 34.49 6.32 34.51 6.16 34.47 A3.44277 3.21325 0 0 1 5.39 34.13 A4.68233 4.37017
								 0 0 1 3.73 32.46 C3.66 32.34 3.64 32.24 3.58 32.12 C3.47 31.89 3.33 31.64 3.21 31.41 C3.1 31.18
								 3 30.94 2.84 30.75 C2.75 30.65 2.44 30.59 2.29 30.54 C2.18 30.5 2.02 30.46 1.92 30.4 A9.37518 8.75017
								 0 0 1 1.39 30.07 C1.3 30.01 1.04 29.89 1.02 29.79 ZM6.69 34.02 L6.69 34.01 L6.67 34.01 C6.63 33.92
								 6.55 33.87 6.49 33.79 C6.44 33.71 6.4 33.63 6.35 33.55 L6.34 33.56 C6.26 33.61 6.22 33.69 6.22 33.81
								 C6.26 33.85 6.26 33.89 6.29 33.92 C6.33 33.97 6.4 34 6.45 34.04 a0.919604 0.858297 -180 0 0 0.237579
								 -0.0268218 L6.69 34.02 Z" class="st7"/>
				</g>
			</g>
		</g>
		<g id="shape81-31" v:mID="81" v:groupContext="shape" transform="translate(0.25,-0.25)">
			<title>Rectangle.3058</title>
			<v:userDefs>
				<v:ud v:nameU="visVersion" v:val="VT0(15):26"/>
				<v:ud v:nameU="visMasterStencil" v:prompt="" v:val="VT4(Basic_M.vssx)"/>
			</v:userDefs>
			<rect x="0" y="0.5" width="120.441" height="35.75" rx="2.83465" ry="2.83465" class="st9"/>
		</g>
		<g id="group82-33" transform="translate(72.0421,-6.48736)" v:mID="82" v:groupContext="group">
			<title>工作表.82</title>
			<g id="shape83-34" v:mID="83" v:groupContext="shape" transform="translate(0.00648152,-14.914)">
				<title>Rectangle.2587</title>
				<v:userDefs>
					<v:ud v:nameU="visVersion" v:val="VT0(15):26"/>
					<v:ud v:nameU="visMasterStencil" v:prompt="" v:val="VT4(Basic_M.vssx)"/>
				</v:userDefs>
				<g id="shadow83-35" v:groupContext="shadow" v:shadowOffsetX="2.12132" v:shadowOffsetY="-2.12132" v:shadowType="1"
						transform="matrix(1,0,0,1,2.12132,2.12132)" class="st10">
					<rect x="0" y="28.7988" width="17.6295" height="7.45122" class="st11"/>
				</g>
				<rect x="0" y="28.7988" width="17.6295" height="7.45122" class="st12"/>
			</g>
			<g id="shape84-39" v:mID="84" v:groupContext="shape" transform="translate(17.636,-14.914)">
				<title>Rectangle.2588</title>
				<v:userDefs>
					<v:ud v:nameU="visVersion" v:val="VT0(15):26"/>
					<v:ud v:nameU="visMasterStencil" v:prompt="" v:val="VT4(Basic_M.vssx)"/>
				</v:userDefs>
				<g id="shadow84-40" v:groupContext="shadow" v:shadowOffsetX="2.12132" v:shadowOffsetY="-2.12132" v:shadowType="1"
						transform="matrix(1,0,0,1,2.12132,2.12132)" class="st10">
					<rect x="0" y="28.7988" width="11.5266" height="7.45122" class="st11"/>
				</g>
				<rect x="0" y="28.7988" width="11.5266" height="7.45122" class="st12"/>
			</g>
			<g id="shape85-44" v:mID="85" v:groupContext="shape" transform="translate(0,-7.46281)">
				<title>Rectangle.2589</title>
				<v:userDefs>
					<v:ud v:nameU="visVersion" v:val="VT0(15):26"/>
					<v:ud v:nameU="visMasterStencil" v:prompt="" v:val="VT4(Basic_M.vssx)"/>
				</v:userDefs>
				<g id="shadow85-45" v:groupContext="shadow" v:shadowOffsetX="2.12132" v:shadowOffsetY="-2.12132" v:shadowType="1"
						transform="matrix(1,0,0,1,2.12132,2.12132)" class="st10">
					<rect x="0" y="28.7988" width="17.6295" height="7.45122" class="st11"/>
				</g>
				<rect x="0" y="28.7988" width="17.6295" height="7.45122" class="st13"/>
			</g>
			<g id="shape86-49" v:mID="86" v:groupContext="shape" transform="translate(17.6449,-7.46281)">
				<title>Rectangle.2590</title>
				<v:userDefs>
					<v:ud v:nameU="visVersion" v:val="VT0(15):26"/>
					<v:ud v:nameU="visMasterStencil" v:prompt="" v:val="VT4(Basic_M.vssx)"/>
				</v:userDefs>
				<g id="shadow86-50" v:groupContext="shadow" v:shadowOffsetX="2.12132" v:shadowOffsetY="-2.12132" v:shadowType="1"
						transform="matrix(1,0,0,1,2.12132,2.12132)" class="st10">
					<rect x="0" y="28.7988" width="11.5266" height="7.45122" class="st11"/>
				</g>
				<rect x="0" y="28.7988" width="11.5266" height="7.45122" class="st13"/>
			</g>
			<g id="shape87-54" v:mID="87" v:groupContext="shape">
				<title>Rectangle.2591</title>
				<v:userDefs>
					<v:ud v:nameU="visVersion" v:val="VT0(15):26"/>
					<v:ud v:nameU="visMasterStencil" v:prompt="" v:val="VT4(Basic_M.vssx)"/>
				</v:userDefs>
				<g id="shadow87-55" v:groupContext="shadow" v:shadowOffsetX="2.12132" v:shadowOffsetY="-2.12132" v:shadowType="1"
						transform="matrix(1,0,0,1,2.12132,2.12132)" class="st10">
					<rect x="0" y="28.7988" width="17.6295" height="7.45122" class="st11"/>
				</g>
				<rect x="0" y="28.7988" width="17.6295" height="7.45122" class="st13"/>
			</g>
			<g id="shape88-59" v:mID="88" v:groupContext="shape" transform="translate(17.6449,-1.13687E-13)">
				<title>Rectangle.2592</title>
				<v:userDefs>
					<v:ud v:nameU="visVersion" v:val="VT0(15):26"/>
					<v:ud v:nameU="visMasterStencil" v:prompt="" v:val="VT4(Basic_M.vssx)"/>
				</v:userDefs>
				<g id="shadow88-60" v:groupContext="shadow" v:shadowOffsetX="2.12132" v:shadowOffsetY="-2.12132" v:shadowType="1"
						transform="matrix(1,0,0,1,2.12132,2.12132)" class="st10">
					<rect x="0" y="28.7988" width="11.5266" height="7.45122" class="st11"/>
				</g>
				<rect x="0" y="28.7988" width="11.5266" height="7.45122" class="st13"/>
			</g>
			<g id="shape89-64" v:mID="89" v:groupContext="shape" transform="translate(29.0837,-14.914)">
				<title>Rectangle.2595</title>
				<v:userDefs>
					<v:ud v:nameU="visVersion" v:val="VT0(15):26"/>
					<v:ud v:nameU="visMasterStencil" v:prompt="" v:val="VT4(Basic_M.vssx)"/>
				</v:userDefs>
				<g id="shadow89-65" v:groupContext="shadow" v:shadowOffsetX="2.12132" v:shadowOffsetY="-2.12132" v:shadowType="1"
						transform="matrix(1,0,0,1,2.12132,2.12132)" class="st10">
					<rect x="0" y="28.7988" width="11.5266" height="7.45122" class="st11"/>
				</g>
				<rect x="0" y="28.7988" width="11.5266" height="7.45122" class="st12"/>
			</g>
			<g id="shape90-69" v:mID="90" v:groupContext="shape" transform="translate(29.0926,-7.46281)">
				<title>Rectangle.2596</title>
				<v:userDefs>
					<v:ud v:nameU="visVersion" v:val="VT0(15):26"/>
					<v:ud v:nameU="visMasterStencil" v:prompt="" v:val="VT4(Basic_M.vssx)"/>
				</v:userDefs>
				<g id="shadow90-70" v:groupContext="shadow" v:shadowOffsetX="2.12132" v:shadowOffsetY="-2.12132" v:shadowType="1"
						transform="matrix(1,0,0,1,2.12132,2.12132)" class="st10">
					<rect x="0" y="28.7988" width="11.5266" height="7.45122" class="st11"/>
				</g>
				<rect x="0" y="28.7988" width="11.5266" height="7.45122" class="st13"/>
			</g>
			<g id="shape91-74" v:mID="91" v:groupContext="shape" transform="translate(29.0926,-1.13687E-13)">
				<title>Rectangle.2597</title>
				<v:userDefs>
					<v:ud v:nameU="visVersion" v:val="VT0(15):26"/>
					<v:ud v:nameU="visMasterStencil" v:prompt="" v:val="VT4(Basic_M.vssx)"/>
				</v:userDefs>
				<g id="shadow91-75" v:groupContext="shadow" v:shadowOffsetX="2.12132" v:shadowOffsetY="-2.12132" v:shadowType="1"
						transform="matrix(1,0,0,1,2.12132,2.12132)" class="st10">
					<rect x="0" y="28.7988" width="11.5266" height="7.45122" class="st11"/>
				</g>
				<rect x="0" y="28.7988" width="11.5266" height="7.45122" class="st13"/>
			</g>
		</g>
		<g id="group92-79" transform="translate(82.7311,-8.8161)" v:mID="92" v:groupContext="group">
			<title>工作表.92</title>
			<g id="shape93-80" v:mID="93" v:groupContext="shape">
				<title>工作表.93</title>
				<path d="M8.78 36.25 C3.93 36.25 0 32.58 0 28.06 C0 23.53 3.93 19.86 8.78 19.86 C13.63 19.86 17.56 23.53 17.56 28.06
							 C17.56 32.58 13.63 36.25 8.78 36.25 Z" class="st14"/>
			</g>
			<g id="shape94-82" v:mID="94" v:groupContext="shape" transform="translate(5.82976,-4.73599)">
				<title>工作表.94</title>
				<path d="M3.04 29.97 C2.41 29.63 1.64 29.63 1.01 29.97 C0.38 30.32 0 30.92 0 31.61 L0 34.36 C0 35.04 0.38 35.65 1.01
							 36 A2.00617 1.87243 -180 0 0 3.03 36 L5.58 34.63 C6.21 34.28 6.58 33.68 6.58 32.99 C6.6 32.3 6.22 31.69
							 5.58 31.34 L3.04 29.97 Z" class="st15"/>
			</g>
		</g>
	</g>
</svg>
