<?xml version="1.0" encoding="UTF-8" standalone="no"?>
<!DOCTYPE svg PUBLIC "-//W3C//DTD SVG 1.1//EN" "http://www.w3.org/Graphics/SVG/1.1/DTD/svg11.dtd">
<!-- 由 Microsoft Visio, SVG Export 生成 executor.svg 页-1 -->
<svg xmlns="http://www.w3.org/2000/svg" xmlns:xlink="http://www.w3.org/1999/xlink" xmlns:ev="http://www.w3.org/2001/xml-events"
		xmlns:v="http://schemas.microsoft.com/visio/2003/SVGExtensions/" width="1.30085in" height="1.27423in"
		viewBox="0 0 93.6615 91.7443" xml:space="preserve" color-interpolation-filters="sRGB" class="st11">
	<v:documentProperties v:langID="2052" v:metric="true" v:viewMarkup="false"/>

	<style type="text/css">
	<![CDATA[
		.st1 {fill:#3a4362;stroke:none;stroke-width:0.146484}
		.st2 {fill:#4a5b9f;stroke:none;stroke-width:0.146484}
		.st3 {fill:#a4beff;stroke:none;stroke-width:0.146484}
		.st4 {fill:#5b79fb;stroke:none;stroke-width:0.146484}
		.st5 {fill:#ff7e71;stroke:none;stroke-width:0.146484}
		.st6 {fill:#ffffff;stroke:none;stroke-width:0.146484}
		.st7 {fill:#ffce54;stroke:none;stroke-width:0.146484}
		.st8 {fill:#ed5564;stroke:none;stroke-width:0.146484}
		.st9 {fill:#da4453;stroke:none;stroke-width:0.146484}
		.st10 {fill:#262626;stroke:none;stroke-width:0.146484}
		.st11 {fill:none;fill-rule:evenodd;font-size:12px;overflow:visible;stroke-linecap:square;stroke-miterlimit:3}
	]]>
	</style>

	<g v:mID="0" v:index="1" v:groupContext="foregroundPage">
		<title>页-1</title>
		<v:pageProperties v:drawingScale="0.0393701" v:pageScale="0.0393701" v:drawingUnits="24" v:shadowOffsetX="8.50394"
				v:shadowOffsetY="-8.50394"/>
		<g id="group45-1" transform="translate(0.146487,-1.38904)" v:mID="45" v:groupContext="group">
			<title>工作表.45</title>
			<g id="group46-2" transform="translate(0,-19.2009)" v:mID="46" v:groupContext="group">
				<title>工作表.46</title>
				<g id="shape47-3" v:mID="47" v:groupContext="shape" transform="translate(31.1638,-58.8098)">
					<title>工作表.47</title>
					<path d="M28.45 90.51 L22.82 90.51 A1.74108 1.74108 0 0 1 21.02 89.21 L19.11 83.47 L15.06 90.78 A1.89714 1.89714
								 0 0 1 11.75 90.78 L10.18 87.94 L8.58 89.81 A1.81423 1.81423 0 0 1 7.12 90.49 L1.36 90.49 A1.3558
								 1.3558 0 1 1 1.36 87.78 L6.72 87.78 L8.83 85.28 A1.9069 1.9069 0 0 1 11.94 85.57 L13.41 88.18 L17.64
								 80.54 A1.75083 1.75083 0 0 1 19.47 79.56 A1.76546 1.76546 0 0 1 21.1 80.85 L23.4 87.79 L28.45 87.79
								 A1.3558 1.3558 0 1 1 28.45 90.5 L28.45 90.51 Z" class="st1"/>
				</g>
				<g id="shape48-5" v:mID="48" v:groupContext="shape" transform="translate(0,-10.8318)">
					<title>工作表.48</title>
					<path d="M21.68 42.97 A5.41831 5.41831 0 1 1 25.89 40.98 L36.04 59.26 A2.13611 2.13611 0 0 1 36.3 60.31 L36.3
								 60.48 A2.16538 2.16538 0 0 1 34.14 62.48 A2.17513 2.17513 0 0 1 32.27 61.37 L22.02 42.97 L21.68
								 42.97 L21.68 42.97 ZM72.08 42.97 A5.41831 5.41831 -180 1 0 67.88 40.98 L57.71 59.26 A2.18976 2.18976
								 -180 0 0 57.44 60.31 L57.44 60.48 A2.16538 2.16538 -180 0 0 59.61 62.48 A2.17513 2.17513 -180 0
								 0 61.47 61.37 L71.72 42.97 L72.06 42.97 L72.08 42.97 ZM10.84 91.74 L5.42 91.74 A5.41831 5.41831
								 0 0 1 0 86.33 L0 80.9 A5.41831 5.41831 0 0 1 5.42 75.48 L10.84 75.48 L10.84 91.74 ZM81.29 75.48
								 L86.71 75.48 A5.41831 5.41831 0 0 1 92.13 80.9 L92.13 86.32 A5.41831 5.41831 0 0 1 86.71 91.74 L81.29
								 91.74 L81.29 75.48 Z" class="st2"/>
				</g>
				<g id="shape49-7" v:mID="49" v:groupContext="shape" transform="translate(10.8415,0)">
					<title>工作表.49</title>
					<path d="M43.35 37.56 A27.0965 27.0965 0 0 1 70.45 64.65 L70.45 86.33 A5.42319 5.42319 0 0 1 65.03 91.74 L5.42
								 91.74 A5.42319 5.42319 0 0 1 0 86.33 L0 64.65 A27.0965 27.0965 0 0 1 27.1 37.56 L43.35 37.56 ZM24.38
								 53.82 A8.12991 8.12991 -180 1 0 24.38 70.07 L46.06 70.07 A8.12991 8.12991 -180 1 0 46.06 53.82 L24.38
								 53.82 Z" class="st3"/>
				</g>
				<g id="shape50-9" v:mID="50" v:groupContext="shape" transform="translate(32.0173,-24.3751)">
					<title>工作表.50</title>
					<path d="M10.8 86.32 A5.43782 5.43782 0 0 1 10.69 87.37 A4.91599 4.91599 0 0 1 10.38 88.39 A5.28176 5.28176 0
								 0 1 9.9 89.34 A5.14033 5.14033 0 0 1 9.22 90.15 A5.33053 5.33053 0 0 1 8.41 90.83 A5.64266 5.64266
								 0 0 1 6.46 91.64 A5.24762 5.24762 0 0 1 4.35 91.64 A5.0184 5.0184 0 0 1 3.33 91.32 A5.23787 5.23787
								 0 0 1 2.39 90.84 A5.67192 5.67192 0 0 1 1.57 90.16 A5.14033 5.14033 0 0 1 0.9 89.34 A5.61827 5.61827
								 0 0 1 0.41 88.4 A5.03791 5.03791 0 0 1 0.1 87.38 A5.43295 5.43295 0 0 1 0 86.33 A5.15984 5.15984
								 0 0 1 0.11 85.27 A5.04279 5.04279 0 0 1 0.41 84.26 A5.76458 5.76458 0 0 1 0.9 83.32 A5.17934 5.17934
								 0 0 1 1.57 82.5 A5.36467 5.36467 0 0 1 2.39 81.82 A5.7402 5.7402 0 0 1 3.33 81.34 A5.33541 5.33541
								 0 0 1 4.35 81.03 A5.24762 5.24762 0 0 1 6.46 81.03 A5.23299 5.23299 0 0 1 7.48 81.34 A5.19885 5.19885
								 0 0 1 9.23 82.51 A5.17934 5.17934 0 0 1 9.91 83.33 A5.41344 5.41344 0 0 1 10.39 84.27 A4.87697 4.87697
								 0 0 1 10.7 85.28 A5.52073 5.52073 0 0 1 10.8 86.32 Z" class="st4"/>
				</g>
				<g id="shape51-11" v:mID="51" v:groupContext="shape" transform="translate(49.3306,-24.3946)">
					<title>工作表.51</title>
					<path d="M10.82 86.34 A5.43295 5.43295 0 0 1 10.72 87.39 A5.51098 5.51098 0 0 1 9.91 89.34 A5.45245 5.45245 0
								 0 1 9.24 90.16 A5.36467 5.36467 0 0 1 8.42 90.84 A5.07693 5.07693 0 0 1 7.48 91.32 A5.0184 5.0184
								 0 0 1 6.46 91.64 A5.09156 5.09156 0 0 1 5.4 91.74 A5.15008 5.15008 0 0 1 4.35 91.64 A5.49635 5.49635
								 0 0 1 2.4 90.83 A5.45733 5.45733 0 0 1 1.58 90.15 A5.14033 5.14033 0 0 1 0.9 89.35 A5.28176 5.28176
								 0 0 1 0.41 88.41 A5.36467 5.36467 0 0 1 0.1 87.39 A5.43295 5.43295 0 0 1 -0 86.34 A5.52561 5.52561
								 0 0 1 0.11 85.28 A5.77921 5.77921 0 0 1 0.41 84.27 A5.41344 5.41344 0 0 1 0.9 83.33 A5.29639 5.29639
								 0 0 1 2.4 81.83 A5.32078 5.32078 0 0 1 3.33 81.35 A5.23299 5.23299 0 0 1 4.35 81.04 A5.15008 5.15008
								 0 0 1 5.4 80.93 A5.09156 5.09156 0 0 1 6.46 81.04 A5.33541 5.33541 0 0 1 7.48 81.35 A5.7402 5.7402
								 0 0 1 8.42 81.83 A5.46708 5.46708 0 0 1 9.91 83.33 A5.7402 5.7402 0 0 1 10.4 84.27 A5.64266 5.64266
								 0 0 1 10.82 86.34 Z" class="st5"/>
				</g>
				<g id="shape52-13" v:mID="52" v:groupContext="shape" transform="translate(16.1448,-7.58857)">
					<title>工作表.52</title>
					<path d="M46.18 91.74 L57.01 91.74 A2.7116 2.7116 -180 1 0 57.01 86.33 L2.83 86.33 A2.7116 2.7116 -180 1 0 2.83
								 91.74 L46.18 91.74 Z" class="st6"/>
				</g>
				<g id="shape53-15" v:mID="53" v:groupContext="shape" transform="translate(21.683,-16.2501)">
					<title>工作表.53</title>
					<path d="M0 78.2 A13.5433 13.5433 0 0 1 13.54 64.65 L35.22 64.65 A13.5482 13.5482 0 1 1 35.22 91.74 L13.54 91.74
								 A13.5433 13.5433 0 0 1 0 78.2 ZM2.17 78.2 A11.3731 11.3731 -180 0 0 13.54 89.58 L35.22 89.58 A11.3731
								 11.3731 -180 0 0 46.59 78.2 A11.3731 11.3731 -180 0 0 35.22 66.82 L13.54 66.82 A11.3731 11.3731
								 -180 0 0 2.17 78.2 L2.17 78.2 Z" class="st2"/>
				</g>
			</g>
			<g id="group54-17" transform="translate(49.1194,4.54747E-13)" v:mID="54" v:groupContext="group">
				<title>工作表.54</title>
				<g id="group55-18" transform="translate(2.78958,-10.5934)" v:mID="55" v:groupContext="group">
					<title>工作表.55</title>
					<g id="shape56-19" v:mID="56" v:groupContext="shape" transform="translate(29.0571,-1.42109E-13) scale(-1,1)">
						<title>工作表.56</title>
						<path d="M27.85 82.06 L1.21 82.06 A1.20867 1.20867 0 0 1 -0 80.85 C0 80.18 0.54 79.64 1.21 79.64 L27.85 79.64
									 C28.51 79.64 29.06 80.18 29.06 80.85 C29.06 81.52 28.51 82.06 27.85 82.06 ZM12.13 71.21 A1.21162
									 1.21162 0 0 1 11.09 70.62 L7.43 64.52 C7.09 63.95 7.28 63.2 7.85 62.86 A1.20844 1.20844 0 0
									 1 9.51 63.28 L13.17 69.38 C13.51 69.95 13.33 70.7 12.75 71.04 A1.20901 1.20901 0 0 1 12.13 71.21
									 ZM16.94 71.21 C16.73 71.21 16.51 71.16 16.32 71.04 C15.74 70.7 15.56 69.95 15.9 69.38 L19.55
									 63.28 A1.20855 1.20855 0 0 1 21.21 62.86 C21.79 63.2 21.97 63.94 21.63 64.52 L17.98 70.62 C17.75
									 71 17.35 71.21 16.94 71.21 ZM23.17 77.67 C22.68 77.67 22.22 77.37 22.04 76.88 C21.8 76.26 22.12
									 75.56 22.75 75.32 C25.08 74.45 25.44 72.22 25.44 72.19 C25.53 71.53 26.15 71.08 26.81 71.17
									 C27.48 71.27 27.93 71.89 27.83 72.55 C27.81 72.7 27.25 76.22 23.6 77.59 A1.18617 1.18617 0 0
									 1 23.17 77.67 ZM3.63 91.74 C3.57 91.74 3.51 91.74 3.45 91.73 C2.79 91.63 2.34 91.02 2.43 90.36
									 C2.46 90.21 3.01 86.68 6.67 85.31 C7.3 85.08 7.99 85.39 8.23 86.02 C8.46 86.65 8.15 87.35 7.52
									 87.58 C5.19 88.45 4.83 90.69 4.83 90.71 C4.74 91.31 4.22 91.74 3.63 91.74 Z" class="st7"/>
					</g>
					<g id="shape57-21" v:mID="57" v:groupContext="shape">
						<title>工作表.57</title>
						<path d="M27.85 82.06 L1.21 82.06 A1.20867 1.20867 0 0 1 -0 80.85 C0 80.18 0.54 79.64 1.21 79.64 L27.85 79.64
									 C28.51 79.64 29.06 80.18 29.06 80.85 C29.06 81.52 28.51 82.06 27.85 82.06 ZM12.13 71.21 A1.21162
									 1.21162 0 0 1 11.09 70.62 L7.43 64.52 C7.09 63.95 7.28 63.2 7.85 62.86 A1.20844 1.20844 0 0
									 1 9.51 63.28 L13.17 69.38 C13.51 69.95 13.33 70.7 12.75 71.04 A1.20901 1.20901 0 0 1 12.13 71.21
									 ZM16.94 71.21 C16.73 71.21 16.51 71.16 16.32 71.04 C15.74 70.7 15.56 69.95 15.9 69.38 L19.55
									 63.28 A1.20855 1.20855 0 0 1 21.21 62.86 C21.79 63.2 21.97 63.94 21.63 64.52 L17.98 70.62 C17.75
									 71 17.35 71.21 16.94 71.21 ZM23.17 77.67 C22.68 77.67 22.22 77.37 22.04 76.88 C21.8 76.26 22.12
									 75.56 22.75 75.32 C25.08 74.45 25.44 72.22 25.44 72.19 C25.53 71.53 26.15 71.08 26.81 71.17
									 C27.48 71.27 27.93 71.89 27.83 72.55 C27.81 72.7 27.25 76.22 23.6 77.59 A1.18617 1.18617 0 0
									 1 23.17 77.67 ZM3.63 91.74 C3.57 91.74 3.51 91.74 3.45 91.73 C2.79 91.63 2.34 91.02 2.43 90.36
									 C2.46 90.21 3.01 86.68 6.67 85.31 C7.3 85.08 7.99 85.39 8.23 86.02 C8.46 86.65 8.15 87.35 7.52
									 87.58 C5.19 88.45 4.83 90.69 4.83 90.71 C4.74 91.31 4.22 91.74 3.63 91.74 Z" class="st7"/>
					</g>
					<g id="shape58-23" v:mID="58" v:groupContext="shape" transform="translate(4.84784,-2.84217E-13)">
						<title>工作表.58</title>
						<path d="M19.36 78.42 C19.36 85.78 16.59 91.74 9.68 91.74 C2.77 91.74 0 85.78 0 78.42 C0 71.07 3.6 67.53
									 9.68 67.53 C15.76 67.53 19.36 71.07 19.36 78.42 Z" class="st8"/>
					</g>
					<g id="shape59-25" v:mID="59" v:groupContext="shape" transform="translate(13.3184,1.42109E-13)">
						<title>工作表.59</title>
						<path d="M0 91.68 C0.39 91.72 0.79 91.74 1.21 91.74 C1.63 91.74 2.03 91.72 2.42 91.68 L2.42 74.79 L0 74.79
									 L0 91.68 L0 91.68 Z" class="st9"/>
					</g>
					<g id="shape60-27" v:mID="60" v:groupContext="shape" transform="translate(5.19908,-16.9518)">
						<title>工作表.60</title>
						<path d="M0 91.74 L18.66 91.74 C17.62 86.85 14.31 84.48 9.33 84.48 C4.35 84.48 1.04 86.85 0 91.74 Z"
								class="st9"/>
					</g>
				</g>
				<g id="group61-29" v:mID="61" v:groupContext="group">
					<title>工作表.61</title>
					<g id="shape62-30" v:mID="62" v:groupContext="shape">
						<title>工作表.62</title>
						<path d="M35.39 78.71 A4.34306 4.34306 0 0 1 36.99 79.73 L42.94 85.68 A4.24236 4.24236 0 1 1 36.94 91.67
									 L30.99 85.73 A4.31241 4.31241 0 0 1 29.88 83.85 A21.2162 21.2162 0 1 1 35.39 78.71 L35.39 78.71
									 ZM0 66.01 A18.3879 18.3879 -180 0 0 36.78 66.01 A18.3879 18.3879 -180 0 0 0 66.01 Z"
								class="st10"/>
					</g>
				</g>
			</g>
		</g>
	</g>
</svg>
