<?xml version="1.0" standalone="no"?><!DOCTYPE svg PUBLIC "-//W3C//DTD SVG 1.1//EN" "http://www.w3.org/Graphics/SVG/1.1/DTD/svg11.dtd"><svg t="1730200449564" class="icon" viewBox="0 0 1024 1024" version="1.1" xmlns="http://www.w3.org/2000/svg" p-id="2308" xmlns:xlink="http://www.w3.org/1999/xlink" width="200" height="200"><path d="M784.47 716.694h-526.06C115.924 716.694 0 600.772 0 458.286v-51.002C0 264.798 115.924 148.874 258.41 148.874h198.698c15.916 0 28.822 12.906 28.822 28.822v141.722c0 15.916-12.906 28.822-28.822 28.822h-198.698c-15.916 0-28.822-12.906-28.822-28.822 0-15.916 12.906-28.822 28.822-28.822h169.878v-84.082h-169.878c-110.704 0-200.768 90.064-200.768 200.768v51.002c0 110.702 90.064 200.766 200.768 200.766h526.058c15.916 0 28.822 12.906 28.822 28.822s-12.904 28.822-28.82 28.822z" fill="#2D527C" p-id="2309"></path><path d="M492.738 574.972H258.41c-63.25 0-116.688-53.434-116.688-116.686v-51.002c0-15.916 12.906-28.822 28.822-28.822s28.822 12.906 28.822 28.822v51.002c0 31.452 27.59 59.042 59.046 59.042H492.74c15.916 0 28.822 12.906 28.822 28.822-0.004 15.916-12.91 28.822-28.824 28.822z" fill="#2D527C" p-id="2310"></path><path d="M623.658 846.304l371.52-231.49-371.52-231.488z" fill="#CEE8FA" p-id="2311"></path><path d="M623.658 875.126a28.82 28.82 0 0 1-28.822-28.82v-462.98a28.822 28.822 0 0 1 44.062-24.46L1010.42 590.354a28.814 28.814 0 0 1 0 48.92L638.898 870.762a28.756 28.756 0 0 1-15.24 4.364z m28.82-439.886v359.148l288.2-179.576-288.2-179.572z" fill="#2D527C" p-id="2312"></path></svg>