<?xml version="1.0" encoding="UTF-8" standalone="no"?>
<!DOCTYPE svg PUBLIC "-//W3C//DTD SVG 1.1//EN" "http://www.w3.org/Graphics/SVG/1.1/DTD/svg11.dtd">
<!-- 由 Microsoft Visio, SVG Export 生成 planner.svg Page-1 -->
<svg xmlns="http://www.w3.org/2000/svg" xmlns:xlink="http://www.w3.org/1999/xlink" xmlns:ev="http://www.w3.org/2001/xml-events"
		xmlns:v="http://schemas.microsoft.com/visio/2003/SVGExtensions/" width="1.97621in" height="2.36873in"
		viewBox="0 0 142.287 170.548" xml:space="preserve" color-interpolation-filters="sRGB" class="st8">
	<v:documentProperties v:langID="2052" v:metric="true" v:viewMarkup="false">
		<v:userDefs>
			<v:ud v:nameU="msvSubprocessMaster" v:prompt="" v:val="VT4(Rectangle)"/>
			<v:ud v:nameU="msvNoAutoConnect" v:val="VT0(1):26"/>
		</v:userDefs>
	</v:documentProperties>

	<style type="text/css">
	<![CDATA[
		.st1 {fill:#ccd1d9;stroke:#000000;stroke-width:0.5}
		.st2 {fill:#434a54;stroke:#000000;stroke-width:0.5}
		.st3 {fill:#e6e9ed;stroke:#000000;stroke-width:0.5}
		.st4 {fill:#aab2bd;stroke:#000000;stroke-width:0.5}
		.st5 {fill:#a0d468;stroke:#000000;stroke-width:0.5}
		.st6 {fill:#ed5565;stroke:#000000;stroke-width:0.5}
		.st7 {fill:#3399ff;stroke:#000000;stroke-width:0.5}
		.st8 {fill:none;fill-rule:evenodd;font-size:12px;overflow:visible;stroke-linecap:square;stroke-miterlimit:3}
	]]>
	</style>

	<g v:mID="0" v:index="1" v:groupContext="foregroundPage">
		<v:userDefs>
			<v:ud v:nameU="msvThemeOrder" v:val="VT0(0):26"/>
		</v:userDefs>
		<title>页-1</title>
		<v:pageProperties v:drawingScale="0.0393701" v:pageScale="0.0393701" v:drawingUnits="24" v:shadowOffsetX="8.50394"
				v:shadowOffsetY="-8.50394"/>
		<g id="group1-1" transform="translate(0.5,-0.5)" v:mID="1" v:groupContext="group">
			<title>工作表.1</title>
			<g id="shape2-2" v:mID="2" v:groupContext="shape" transform="translate(67.1094,-136.392)">
				<title>工作表.2</title>
				<path d="M0 142.67 L7.07 142.67 L7.07 170.55 L0 170.55 L0 142.67 Z" class="st1"/>
			</g>
			<g id="shape3-4" v:mID="3" v:groupContext="shape" transform="translate(10.5968,-28.2563)">
				<title>工作表.3</title>
				<path d="M0 131.7 L0 167.01 C0 168.97 1.58 170.55 3.53 170.55 C5.48 170.55 7.06 168.97 7.06 167.01 L7.06 131.7 L0
							 131.7 ZM113.03 131.7 L113.03 166.91 C113.03 168.86 114.61 170.44 116.56 170.44 C118.52 170.44 120.09
							 168.86 120.09 166.91 L120.09 131.7 L113.03 131.7 Z" class="st2"/>
			</g>
			<g id="shape4-6" v:mID="4" v:groupContext="shape" transform="translate(0,-63.5807)">
				<title>工作表.4</title>
				<path d="M14.13 142.29 L37.67 142.29 L37.67 170.55 L14.13 170.55 C6.32 170.55 0 164.23 0 156.42 C0 148.62 6.32 142.29
							 14.13 142.29 ZM127.16 142.29 L103.61 142.29 L103.61 170.55 L127.16 170.55 C134.96 170.55 141.29 164.23
							 141.29 156.42 C141.29 148.62 134.96 142.29 127.16 142.29 Z" class="st1"/>
			</g>
			<g id="shape5-8" v:mID="5" v:groupContext="shape" transform="translate(42.3871,2.84217E-14)">
				<title>工作表.5</title>
				<path d="M0 142.29 A28.2563 28.2563 -180 1 0 56.51 142.29 A28.2563 28.2563 -180 1 0 0 142.29 Z" class="st2"/>
			</g>
			<g id="shape6-10" v:mID="6" v:groupContext="shape" transform="translate(21.1936,-14.1255)">
				<title>工作表.6</title>
				<path d="M98.9 96.37 C98.9 69.06 76.76 46.92 49.45 46.92 C22.14 46.92 0 69.06 0 96.37 L0 163.48 C0 167.38 3.16 170.55
							 7.06 170.55 L91.84 170.55 C95.74 170.55 98.9 167.38 98.9 163.48 L98.9 96.37 Z" class="st3"/>
			</g>
			<g id="shape7-12" v:mID="7" v:groupContext="shape" transform="translate(21.1936,-84.7742)">
				<title>工作表.7</title>
				<path d="M0 167.02 L0 170.55 L98.9 170.55 L98.9 167.02 C98.9 165.83 98.86 164.65 98.78 163.49 L0.12 163.49 A49.8479
							 49.8479 -180 0 0 0 167.02 Z" class="st4"/>
			</g>
			<g id="shape8-14" v:mID="8" v:groupContext="shape" transform="translate(60.0466,-148.355)">
				<title>工作表.8</title>
				<path d="M0 159.95 A10.5968 10.5968 -180 1 0 21.19 159.95 A10.5968 10.5968 -180 0 0 0 159.95 Z" class="st3"/>
			</g>
			<g id="shape9-16" v:mID="9" v:groupContext="shape" transform="translate(84.7742,-63.5807)">
				<title>工作表.9</title>
				<path d="M7.06 167.02 C7.06 168.97 5.48 170.55 3.53 170.55 C1.58 170.55 0 168.97 0 167.02 C0 165.07 1.58 163.49 3.53
							 163.49 C5.48 163.49 7.06 165.07 7.06 167.02 Z" class="st5"/>
			</g>
			<g id="shape10-18" v:mID="10" v:groupContext="shape" transform="translate(51.1417,-105.968)">
				<title>工作表.10</title>
				<path d="M7.07 167.02 C7.07 168.97 5.48 170.55 3.53 170.55 C1.58 170.55 0 168.97 0 167.02 C0 165.07 1.58 163.49 3.53
							 163.49 C5.48 163.49 7.07 165.07 7.07 167.02 Z" class="st2"/>
			</g>
			<g id="shape11-20" v:mID="11" v:groupContext="shape" transform="translate(93.5288,-63.5807)">
				<title>工作表.11</title>
				<path d="M7.07 167.02 C7.07 168.97 5.48 170.55 3.53 170.55 C1.58 170.55 0 168.97 0 167.02 C0 165.07 1.58 163.49 3.53
							 163.49 C5.48 163.49 7.07 165.07 7.07 167.02 Z" class="st6"/>
			</g>
			<g id="shape12-22" v:mID="12" v:groupContext="shape" transform="translate(35.3191,-63.5807)">
				<title>工作表.12</title>
				<path d="M51.15 124.63 C51.15 126.58 49.56 128.16 47.61 128.16 C45.66 128.16 44.08 126.58 44.08 124.63 C44.08 122.68
							 45.66 121.1 47.61 121.1 C49.56 121.1 51.15 122.68 51.15 124.63 ZM17.66 163.49 L3.53 163.49 C1.58 163.49
							 0 165.07 0 167.02 C0 168.97 1.58 170.55 3.53 170.55 L17.66 170.55 C19.62 170.55 21.19 168.97 21.19 167.02
							 C21.19 165.07 19.62 163.49 17.66 163.49 Z" class="st2"/>
			</g>
			<g id="shape13-24" v:mID="13" v:groupContext="shape" transform="translate(102.289,-63.5807)">
				<title>工作表.13</title>
				<path d="M7.07 167.02 C7.07 168.97 5.48 170.55 3.53 170.55 C1.58 170.55 0 168.97 0 167.02 C0 165.07 1.58 163.49 3.53
							 163.49 C5.48 163.49 7.07 165.07 7.07 167.02 Z" class="st7"/>
			</g>
		</g>
	</g>
</svg>
