<?xml version="1.0" encoding="UTF-8" standalone="no"?>
<!DOCTYPE svg PUBLIC "-//W3C//DTD SVG 1.1//EN" "http://www.w3.org/Graphics/SVG/1.1/DTD/svg11.dtd">
<!-- 由 Microsoft Visio, SVG Export 生成 user.svg Page-1 -->
<svg xmlns="http://www.w3.org/2000/svg" xmlns:xlink="http://www.w3.org/1999/xlink" xmlns:ev="http://www.w3.org/2001/xml-events"
		xmlns:v="http://schemas.microsoft.com/visio/2003/SVGExtensions/" width="1.03003in" height="1.04627in"
		viewBox="0 0 74.1622 75.3316" xml:space="preserve" color-interpolation-filters="sRGB" class="st3">
	<v:documentProperties v:langID="2052" v:metric="true" v:viewMarkup="false">
		<v:userDefs>
			<v:ud v:nameU="msvSubprocessMaster" v:prompt="" v:val="VT4(Rectangle)"/>
			<v:ud v:nameU="msvNoAutoConnect" v:val="VT0(1):26"/>
		</v:userDefs>
	</v:documentProperties>

	<style type="text/css">
	<![CDATA[
		.st1 {fill:#085684;stroke:none;stroke-width:0.146484}
		.st2 {fill:#ffffff;stroke:none;stroke-width:0.146484}
		.st3 {fill:none;fill-rule:evenodd;font-size:12px;overflow:visible;stroke-linecap:square;stroke-miterlimit:3}
	]]>
	</style>

	<g v:mID="0" v:index="1" v:groupContext="foregroundPage">
		<v:userDefs>
			<v:ud v:nameU="msvThemeOrder" v:val="VT0(0):26"/>
		</v:userDefs>
		<title>页-1</title>
		<v:pageProperties v:drawingScale="0.0393701" v:pageScale="0.0393701" v:drawingUnits="24" v:shadowOffsetX="8.50394"
				v:shadowOffsetY="-8.50394"/>
		<g id="group1-1" transform="translate(0.146484,-0.146484)" v:mID="1" v:groupContext="group">
			<title>工作表.1</title>
			<g id="shape2-2" v:mID="2" v:groupContext="shape">
				<title>工作表.2</title>
				<path d="M73.87 40.16 C73.87 59.59 58.36 75.33 39.24 75.33 L34.63 75.33 C15.5 75.33 0 59.59 0 40.16 L0 35.47 C0 16.04
							 15.5 0.29 34.63 0.29 L39.24 0.29 C58.36 0.29 73.87 16.04 73.87 35.47 L73.87 40.16 Z" class="st1"/>
			</g>
			<g id="shape3-4" v:mID="3" v:groupContext="shape" transform="translate(21.309,-31.5655)">
				<title>工作表.3</title>
				<path d="M15.63 43.58 A15.6464 15.8941 -180 0 0 -0 59.46 A15.6464 15.8941 -180 0 0 15.63 75.33 C24.24 75.33 31.26
							 68.21 31.26 59.46 A15.651 15.8988 -180 0 0 15.63 43.58 Z" class="st2"/>
			</g>
			<g id="shape4-6" v:mID="4" v:groupContext="shape" transform="translate(13.5665,-11.7248)">
				<title>工作表.4</title>
				<path d="M35.41 55.13 C32.09 57.8 27.94 59.46 23.37 59.46 C18.8 59.46 14.66 57.8 11.32 55.13 C5 59.21 0.6 66.39 0
							 74.7 C2.21 75 6.15 75.33 11.77 75.33 L34.96 75.33 C40.58 75.33 44.52 75 46.74 74.7 C46.14 66.38 41.74
							 59.21 35.41 55.13 Z" class="st2"/>
			</g>
		</g>
	</g>
</svg>
